<svg
   width="17mm"
   height="16mm"
   version="1.1"
   viewBox="0 0 17 16"
   id="svg13"
   sodipodi:docname="dataset_parquet.svg"
   inkscape:version="1.3.2 (1:1.3.2+202311252150+091e20ef0f)"
   inkscape:export-filename="dataset_parquet.png"
   inkscape:export-xdpi="150"
   inkscape:export-ydpi="150"
   xmlns:inkscape="http://www.inkscape.org/namespaces/inkscape"
   xmlns:sodipodi="http://sodipodi.sourceforge.net/DTD/sodipodi-0.dtd"
   xmlns="http://www.w3.org/2000/svg"
   xmlns:svg="http://www.w3.org/2000/svg">
  <defs
     id="defs13" />
  <sodipodi:namedview
     id="namedview13"
     pagecolor="#ffffff"
     bordercolor="#666666"
     borderopacity="1.0"
     inkscape:showpageshadow="2"
     inkscape:pageopacity="0.0"
     inkscape:pagecheckerboard="0"
     inkscape:deskcolor="#d1d1d1"
     inkscape:document-units="mm"
     inkscape:zoom="8.8989469"
     inkscape:cx="16.912113"
     inkscape:cy="35.846938"
     inkscape:window-width="1976"
     inkscape:window-height="1088"
     inkscape:window-x="72"
     inkscape:window-y="27"
     inkscape:window-maximized="1"
     inkscape:current-layer="svg13" />
  <g
     transform="translate(-94.943661,-122.52869)"
     id="g6">
    <g
       transform="matrix(0.063989,0,0,0.063989,97.759,127.65)"
       id="g5">
      <g
         transform="matrix(5.1102,0,0,5.3108,17.433,-33.817)"
         stroke="#000000"
         id="g4">
        <path
           d="M 16,0 C 9.256,0 2,2.033 2,6.5 v 19 c 0,4.465 7.256,6.5 14,6.5 6.743,0 14,-2.035 14,-6.5 V 6.5 C 30,2.033 22.742,0 16,0 Z M 28,25.5 C 28,27.984 22.627,30 16,30 9.372,30 4,27.984 4,25.5 V 21.764 C 6.066,23.893 11.05,25 16,25 c 4.95,0 9.934,-1.107 12,-3.236 z m 0,-6 H 27.996 C 27.996,19.51 28,19.521 28,19.531 28,22 22.627,24 16,24 9.373,24 4,22 4,19.531 4,19.521 4.004,19.51 4.004,19.5 H 4 V 15.764 C 6.066,17.893 11.05,19 16,19 c 4.95,0 9.934,-1.107 12,-3.236 z m 0,-6 H 27.996 C 27.996,13.51 28,13.521 28,13.531 28,16 22.627,18 16,18 9.373,18 4,16 4,13.531 4,13.521 4.004,13.51 4.004,13.5 H 4 V 10.064 C 6.621,12.061 11.425,13 16,13 c 4.575,0 9.379,-0.939 12,-2.936 z M 16,11 C 9.372,11 4,8.984 4,6.5 4,4.014 9.372,2 16,2 22.627,2 28,4.014 28,6.5 28,8.984 22.627,11 16,11 Z"
           fill="#bfbfbf"
           stroke="#bfbfbf"
           id="path3" />
      </g>
    </g>
    <path
       d="m 107.7,138.46 c -0.0752,-0.0655 -0.23124,-0.22307 -0.36247,-0.36606 -0.0725,-0.079 -0.13772,-0.16765 -0.13772,-0.18719 0,-0.0173 0.0865,-0.10319 0.35444,-0.35198 0.37456,-0.34775 1.3107,-1.207 2.1161,-1.9422 0.95617,-0.87292 1.0448,-0.95278 1.0709,-0.9651 0.0298,-0.014 0.13179,0.0218 0.28927,0.10154 0.16925,0.0857 0.25332,0.14195 0.25332,0.16944 0,0.0604 -0.22165,0.29735 -1.5447,1.6516 -0.97303,0.99594 -1.928,1.9526 -1.9492,1.9525 -0.01,-3e-5 -0.0505,-0.0282 -0.0899,-0.0625 z m -0.81016,-0.84132 c -0.10748,-0.0938 -0.33566,-0.33343 -0.38338,-0.40271 -0.0218,-0.0316 -0.0367,-0.0642 -0.0334,-0.0729 0.0114,-0.0296 0.6277,-0.53983 1.3512,-1.1186 0.44854,-0.35879 0.62805,-0.49634 0.64779,-0.49634 0.0388,0 0.46006,0.31711 0.48828,0.36754 0.0116,0.0208 -0.022,0.0537 -0.4595,0.45183 -0.69684,0.63408 -1.4995,1.339 -1.5246,1.339 -0.005,0 -0.0435,-0.0305 -0.0864,-0.0679 z m -0.68458,-0.70586 c -0.0954,-0.0579 -0.38089,-0.38736 -0.38089,-0.43944 0,-0.0246 0.0772,-0.0848 0.39147,-0.30562 0.3246,-0.22799 0.53419,-0.36445 0.55975,-0.36445 0.0268,0 0.0968,0.0482 0.21261,0.14636 0.11401,0.0966 0.23277,0.21703 0.23277,0.23601 0,0.048 -0.90517,0.74988 -0.96681,0.74968 -0.007,-2e-5 -0.0285,-0.0102 -0.0489,-0.0225 z m -0.64011,-0.66164 c -0.0752,-0.0545 -0.29522,-0.28011 -0.31156,-0.31956 -0.0111,-0.0266 -0.0111,-0.0362 -4e-4,-0.0491 0.0164,-0.0197 0.23469,-0.16439 0.89917,-0.59579 1.3376,-0.86842 1.8898,-1.2185 1.9218,-1.2185 0.048,0 0.32551,0.16188 0.37821,0.22066 0.017,0.0189 0.0178,0.0249 0.006,0.0394 -0.0337,0.0405 -1.0322,0.74991 -2.0095,1.4276 -0.55286,0.38333 -0.78072,0.53421 -0.80641,0.53393 -0.0133,-1.6e-4 -0.0479,-0.0175 -0.077,-0.0386 z m 1.8515,-0.26365 c -0.0672,-0.0348 -0.20457,-0.14191 -0.30462,-0.23736 -0.088,-0.0839 -0.10441,-0.10454 -0.0984,-0.12348 0.0116,-0.0364 0.10547,-0.10678 0.93652,-0.70131 1.0628,-0.76031 1.4209,-1.0081 1.477,-1.0222 0.0474,-0.0119 0.39601,0.17643 0.41414,0.22368 0.004,0.009 -0.004,0.0279 -0.0188,0.0438 -0.0978,0.10657 -2.1906,1.7293 -2.3336,1.8094 -0.0385,0.0216 -0.044,0.0221 -0.0722,0.007 z m -2.4027,-0.28908 c -0.0617,-0.0461 -0.12207,-0.10355 -0.19503,-0.18579 -0.0689,-0.0776 -0.0877,-0.11125 -0.0775,-0.13801 0.007,-0.0195 1.0962,-0.67081 1.759,-1.0524 l 0.15233,-0.0877 0.054,0.0267 c 0.0711,0.0351 0.22376,0.14468 0.27546,0.19763 0.0346,0.0355 0.039,0.0446 0.0276,0.0583 -0.05,0.0602 -1.6467,1.0688 -1.8912,1.1946 -0.046,0.0237 -0.057,0.0222 -0.10474,-0.0134 z m 4.0657,-0.0102 c -0.11702,-0.0606 -0.37711,-0.25017 -0.40116,-0.29247 -0.004,-0.008 8e-5,-0.0228 0.0105,-0.0348 0.0701,-0.0798 0.95286,-0.81376 1.2555,-1.0438 0.0873,-0.0663 0.0975,-0.0713 0.13566,-0.0662 0.0787,0.0105 0.42655,0.20316 0.45663,0.25286 0.014,0.0231 0.008,0.029 -0.23237,0.25096 -0.43261,0.39871 -1.1049,0.97418 -1.1381,0.97418 -0.004,0 -0.0435,-0.0183 -0.0868,-0.0407 z m -4.6646,-0.60194 c -0.17728,-0.17586 -0.17157,-0.15327 -0.056,-0.22179 0.0832,-0.0493 1.0752,-0.5897 2.3827,-1.298 l 1.0496,-0.56857 0.13592,0.0691 c 0.0747,0.038 0.14675,0.0807 0.15999,0.0947 l 0.0241,0.0256 -0.0351,0.0263 c -0.0685,0.0512 -0.78398,0.47574 -1.8444,1.0944 -1.0998,0.6417 -1.6133,0.93413 -1.6402,0.93413 -0.0108,0 -0.0891,-0.0692 -0.17656,-0.15596 z m 2.7213,-0.74496 c -0.11036,-0.0628 -0.24335,-0.17862 -0.24335,-0.21188 0,-0.0308 0.27239,-0.20307 0.98396,-0.62229 l 0.41792,-0.24622 0.0642,0.0333 c 0.1158,0.0601 0.25286,0.1404 0.27353,0.16037 0.0177,0.0171 0.0184,0.0219 0.005,0.0377 -0.0292,0.0352 -0.62749,0.42053 -1.036,0.66713 -0.25804,0.15576 -0.36517,0.21525 -0.38744,0.21514 -0.011,-4e-5 -0.0461,-0.0149 -0.0781,-0.0333 z m 1.4217,-0.18467 c -0.1586,-0.0841 -0.27901,-0.1729 -0.27901,-0.20567 0,-0.0117 0.0233,-0.0388 0.0556,-0.0645 0.0757,-0.0604 0.37037,-0.25372 0.44053,-0.28904 l 0.057,-0.0287 0.0594,0.0227 c 0.13734,0.0525 0.3186,0.16636 0.3186,0.20015 0,0.0254 -0.0531,0.0731 -0.1855,0.16675 -0.18721,0.13241 -0.35645,0.23647 -0.38454,0.23647 -0.005,0 -0.0425,-0.0172 -0.082,-0.0382 z"
       fill="#52acef"
       stroke-width="0.01058"
       id="path5" />
  </g>
  <g
     transform="matrix(0.063989,0,0,0.063989,-1.606,32.05)"
     id="g12">
    <g
       transform="matrix(5.1102,0,0,5.3108,17.433,-33.817)"
       stroke="#000000"
       id="g11" />
  </g>
</svg>
