<svg
   width="17.5mm"
   height="16mm"
   version="1.1"
   viewBox="0 0 17.5 16"
   id="svg13"
   sodipodi:docname="dataset_json.svg"
   inkscape:version="1.3.2 (1:1.3.2+202311252150+091e20ef0f)"
   inkscape:export-filename="dataset_json.png"
   inkscape:export-xdpi="150"
   inkscape:export-ydpi="150"
   xmlns:inkscape="http://www.inkscape.org/namespaces/inkscape"
   xmlns:sodipodi="http://sodipodi.sourceforge.net/DTD/sodipodi-0.dtd"
   xmlns="http://www.w3.org/2000/svg"
   xmlns:svg="http://www.w3.org/2000/svg">
  <defs
     id="defs13" />
  <sodipodi:namedview
     id="namedview13"
     pagecolor="#ffffff"
     bordercolor="#666666"
     borderopacity="1.0"
     inkscape:showpageshadow="2"
     inkscape:pageopacity="0.0"
     inkscape:pagecheckerboard="0"
     inkscape:deskcolor="#d1d1d1"
     inkscape:document-units="mm"
     inkscape:zoom="8.6296188"
     inkscape:cx="23.233935"
     inkscape:cy="34.648112"
     inkscape:window-width="1976"
     inkscape:window-height="1088"
     inkscape:window-x="72"
     inkscape:window-y="27"
     inkscape:window-maximized="1"
     inkscape:current-layer="svg13" />
  <g
     id="g1"
     transform="translate(3.3564743,2.309684)">
    <g
       transform="matrix(0.063989,0,0,0.063989,-1.606,2.34)"
       id="g12">
      <g
         transform="matrix(5.1102,0,0,5.3108,17.433,-33.817)"
         stroke="#000000"
         id="g11">
        <path
           d="M 16,0 C 9.256,0 2,2.033 2,6.5 v 19 c 0,4.465 7.256,6.5 14,6.5 6.743,0 14,-2.035 14,-6.5 V 6.5 C 30,2.033 22.742,0 16,0 Z M 28,25.5 C 28,27.984 22.627,30 16,30 9.372,30 4,27.984 4,25.5 V 21.764 C 6.066,23.893 11.05,25 16,25 c 4.95,0 9.934,-1.107 12,-3.236 z m 0,-6 H 27.996 C 27.996,19.51 28,19.521 28,19.531 28,22 22.627,24 16,24 9.373,24 4,22 4,19.531 4,19.521 4.004,19.51 4.004,19.5 H 4 V 15.764 C 6.066,17.893 11.05,19 16,19 c 4.95,0 9.934,-1.107 12,-3.236 z m 0,-6 H 27.996 C 27.996,13.51 28,13.521 28,13.531 28,16 22.627,18 16,18 9.373,18 4,16 4,13.531 4,13.521 4.004,13.51 4.004,13.5 H 4 V 10.064 C 6.621,12.061 11.425,13 16,13 c 4.575,0 9.379,-0.939 12,-2.936 z M 16,11 C 9.372,11 4,8.984 4,6.5 4,4.014 9.372,2 16,2 22.627,2 28,4.014 28,6.5 28,8.984 22.627,11 16,11 Z"
           fill="#bfbfbf"
           stroke="#bfbfbf"
           id="path10" />
      </g>
    </g>
    <text
       x="6.8337612"
       y="12.810616"
       font-family="sans-serif"
       font-size="4.9389px"
       letter-spacing="0px"
       stroke-width="0.26458"
       word-spacing="0px"
       style="line-height:1.25"
       xml:space="preserve"
       id="text12"><tspan
         x="6.8337612"
         y="12.810616"
         fill="#ff6600"
         stroke-width="0.26458"
         id="tspan12">{;}</tspan></text>
  </g>
</svg>
