<svg width="10.055mm" height="12.29mm" version="1.1" viewBox="0 0 10.055 12.29" xmlns="http://www.w3.org/2000/svg"><g transform="translate(-99.44 -108.26)"><g transform="matrix(.063989 0 0 .063989 97.834 110.59)"><g transform="matrix(5.1102 0 0 5.3108 17.433 -33.817)" stroke="#000"><path d="m16 0c-6.744 0-14 2.033-14 6.5v19c0 4.465 7.256 6.5 14 6.5 6.743 0 14-2.035 14-6.5v-19c0-4.467-7.258-6.5-14-6.5zm12 25.5c0 2.484-5.373 4.5-12 4.5-6.628 0-12-2.016-12-4.5v-3.736c2.066 2.129 7.05 3.236 12 3.236s9.934-1.107 12-3.236zm0-6h-4e-3c0 0.01 4e-3 0.021 4e-3 0.031 0 2.469-5.373 4.469-12 4.469s-12-2-12-4.469c0-0.01 4e-3 -0.021 4e-3 -0.031h-4e-3v-3.736c2.066 2.129 7.05 3.236 12 3.236s9.934-1.107 12-3.236zm0-6h-4e-3c0 0.01 4e-3 0.021 4e-3 0.031 0 2.469-5.373 4.469-12 4.469s-12-2-12-4.469c0-0.01 4e-3 -0.021 4e-3 -0.031h-4e-3v-3.436c2.621 1.997 7.425 2.936 12 2.936s9.379-0.939 12-2.936zm-12-2.5c-6.628 0-12-2.016-12-4.5 0-2.486 5.372-4.5 12-4.5 6.627 0 12 2.014 12 4.5 0 2.484-5.373 4.5-12 4.5z" fill="#bfbfbf" stroke="#bfbfbf"/></g></g><circle transform="rotate(-31.014)" cx="30.78" cy="155.91" r="2.4987" fill="#212529" stroke="#ffdd18" stroke-width=".56974"/><path transform="matrix(.069314 .039824 -.039824 .069314 94.927 101.64)" d="m243.97 87.797c1.9676 1.9432-4.0456 10.623-3.596 13.351 0.44963 2.7286 8.9298 9.02 7.6897 11.492-1.2401 2.4718-11.353-0.565-13.809 0.70582-2.4562 1.2708-5.8191 11.28-8.5531 10.864-2.734-0.41558-2.9709-10.972-4.9386-12.915-1.9676-1.9432-12.526-2.0485-12.976-4.7772-0.44963-2.7286 9.5169-6.2161 10.757-8.6879 1.2401-2.4718-1.9225-12.546 0.53362-13.817s8.8527 7.1303 11.587 7.5458c2.734 0.41558 11.338-5.7054 13.306-3.7622z" fill="#ffdd18" stop-color="#000000"/></g></svg>
