<?xml version="1.0" encoding="UTF-8" standalone="no"?>
<!-- Created with Inkscape (http://www.inkscape.org/) -->

<svg
   width="28.240288mm"
   height="28.240288mm"
   version="1.1"
   viewBox="0 0 28.240287 28.240288"
   id="svg44"
   sodipodi:docname="users.svg"
   inkscape:version="1.3.2 (1:1.3.2+202311252150+091e20ef0f)"
   inkscape:export-filename="users.png"
   inkscape:export-xdpi="150"
   inkscape:export-ydpi="150"
   xmlns:inkscape="http://www.inkscape.org/namespaces/inkscape"
   xmlns:sodipodi="http://sodipodi.sourceforge.net/DTD/sodipodi-0.dtd"
   xmlns="http://www.w3.org/2000/svg"
   xmlns:svg="http://www.w3.org/2000/svg">
  <sodipodi:namedview
     id="namedview44"
     pagecolor="#ffffff"
     bordercolor="#666666"
     borderopacity="1.0"
     inkscape:showpageshadow="2"
     inkscape:pageopacity="0.0"
     inkscape:pagecheckerboard="0"
     inkscape:deskcolor="#d1d1d1"
     inkscape:document-units="mm"
     inkscape:zoom="3.1643098"
     inkscape:cx="64.627048"
     inkscape:cy="75.5299"
     inkscape:window-width="1976"
     inkscape:window-height="1088"
     inkscape:window-x="72"
     inkscape:window-y="27"
     inkscape:window-maximized="1"
     inkscape:current-layer="svg44" />
  <defs
     id="defs9">
    <marker
       id="marker12378-5-0"
       overflow="visible"
       orient="auto">
      <path
         transform="scale(-0.6)"
         d="M 8.7186,4.0337 -2.2074,0.016 8.7186,-4.0017 c -1.7455,2.3721 -1.7354,5.6175 0,8.0354 z"
         fill="context-stroke"
         fill-rule="evenodd"
         stroke-linejoin="round"
         stroke-width="0.625"
         id="path1" />
    </marker>
    <marker
       id="marker12378-0-4-6"
       overflow="visible"
       orient="auto">
      <path
         transform="scale(-0.6)"
         d="M 8.7186,4.0337 -2.2074,0.016 8.7186,-4.0017 c -1.7455,2.3721 -1.7354,5.6175 0,8.0354 z"
         fill="context-stroke"
         fill-rule="evenodd"
         stroke-linejoin="round"
         stroke-width="0.625"
         id="path2" />
    </marker>
    <marker
       id="marker12378-0-4-6-7"
       overflow="visible"
       orient="auto">
      <path
         transform="scale(-0.6)"
         d="M 8.7186,4.0337 -2.2074,0.016 8.7186,-4.0017 c -1.7455,2.3721 -1.7354,5.6175 0,8.0354 z"
         fill="context-stroke"
         fill-rule="evenodd"
         stroke-linejoin="round"
         stroke-width="0.625"
         id="path3" />
    </marker>
    <marker
       id="marker12378-0-4-6-7-1"
       overflow="visible"
       orient="auto">
      <path
         transform="scale(-0.6)"
         d="M 8.7186,4.0337 -2.2074,0.016 8.7186,-4.0017 c -1.7455,2.3721 -1.7354,5.6175 0,8.0354 z"
         fill="context-stroke"
         fill-rule="evenodd"
         stroke-linejoin="round"
         stroke-width="0.625"
         id="path4" />
    </marker>
    <marker
       id="marker12378-6-7"
       overflow="visible"
       orient="auto">
      <path
         transform="scale(-0.6)"
         d="M 8.7186,4.0337 -2.2074,0.016 8.7186,-4.0017 c -1.7455,2.3721 -1.7354,5.6175 0,8.0354 z"
         fill="context-stroke"
         fill-rule="evenodd"
         stroke-linejoin="round"
         stroke-width="0.625"
         id="path5" />
    </marker>
    <marker
       id="marker12378-5-0-5"
       overflow="visible"
       orient="auto">
      <path
         transform="scale(-0.6)"
         d="M 8.7186,4.0337 -2.2074,0.016 8.7186,-4.0017 c -1.7455,2.3721 -1.7354,5.6175 0,8.0354 z"
         fill="context-stroke"
         fill-rule="evenodd"
         stroke-linejoin="round"
         stroke-width="0.625"
         id="path6" />
    </marker>
    <marker
       id="marker12378-5-0-5-1"
       overflow="visible"
       orient="auto">
      <path
         transform="scale(-0.6)"
         d="M 8.7186,4.0337 -2.2074,0.016 8.7186,-4.0017 c -1.7455,2.3721 -1.7354,5.6175 0,8.0354 z"
         fill="context-stroke"
         fill-rule="evenodd"
         stroke-linejoin="round"
         stroke-width="0.625"
         id="path7" />
    </marker>
    <filter
       id="filter8745"
       x="-0.052557234"
       y="-0.052654535"
       width="1.1051145"
       height="1.1053091"
       color-interpolation-filters="sRGB">
      <feGaussianBlur
         stdDeviation="0.88504577"
         id="feGaussianBlur7" />
    </filter>
    <marker
       id="marker12378-5-0-5-1-5"
       overflow="visible"
       orient="auto">
      <path
         transform="scale(-0.6)"
         d="M 8.7186,4.0337 -2.2074,0.016 8.7186,-4.0017 c -1.7455,2.3721 -1.7354,5.6175 0,8.0354 z"
         fill="context-stroke"
         fill-rule="evenodd"
         stroke-linejoin="round"
         stroke-width="0.625"
         id="path8" />
    </marker>
    <marker
       id="marker12378-6-7-4"
       overflow="visible"
       orient="auto">
      <path
         transform="scale(-0.6)"
         d="M 8.7186,4.0337 -2.2074,0.016 8.7186,-4.0017 c -1.7455,2.3721 -1.7354,5.6175 0,8.0354 z"
         fill="context-stroke"
         fill-rule="evenodd"
         stroke-linejoin="round"
         stroke-width="0.625"
         id="path9" />
    </marker>
  </defs>
  <path
     d="m 10.929612,22.198932 c -0.78171,-0.21207 -1.3123997,-0.82241 -1.4245997,-1.6384 -0.0553,-0.40235 0.10403,-1.6111 0.30289,-2.2973 0.3678397,-1.2693 0.9394497,-1.9077 2.4097997,-2.6913 l 0.59672,-0.318 0.23662,0.27682 c 0.50194,0.58722 1.4998,1.1885 2.3537,1.4183 0.54121,0.14563 1.7594,0.14563 2.3006,0 0.85395,-0.22979 1.8518,-0.83104 2.3537,-1.4183 l 0.236616,-0.27682 0.59672,0.318 c 1.8775,1.0006 2.4295,1.8694 2.6849,4.2264 0.0563,0.51982 0.0522,0.68096 -0.025,0.98248 -0.11343,0.44278 -0.30935,0.76207 -0.64268,1.0474 -0.5378,0.46035 -0.17372,0.43419 -6.233496,0.44773 -4.6052,0.0103 -5.4676,-0.001 -5.7465,-0.0769 z m -7.0153,-5.1653 c -0.17631,-0.0609 -0.4215,-0.19138 -0.54487,-0.28996 -0.27608,-0.2206 -0.59372,-0.67945 -0.67639,-0.97707 -0.19585,-0.70517 0.0713,-2.4498 0.51809,-3.3838 0.36965,-0.77267 0.96252,-1.3113 2.1361,-1.9408 l 0.5629,-0.30192 0.40348,0.4018 c 0.95683,0.95286 2.0274,1.3965 3.3754003,1.3988 0.6666597,10e-4 1.3232997,-0.1338 1.8707997,-0.38447 l 0.31309,-0.14333 -0.0247,0.76389 c -0.0215,0.66628 -0.006,0.8335 0.12156,1.3088 0.0804,0.29968 0.19169,0.64663 0.24721,0.771 l 0.10095,0.22613 -0.49734,0.25006 c -1.1284,0.56735 -1.9356997,1.2506 -2.3720997,2.0078 l -0.23501,0.40773 -2.4893003,-0.002 c -2.2513,-0.002 -2.52,-0.0126 -2.8099,-0.11269 z m 11.672,-1.0061 c -1.3821,-0.37568 -2.4892,-1.5649 -2.7609,-2.9657 -0.36271,-1.8701 0.77524,-3.7651003 2.6095,-4.3456003 0.59962,-0.18974 1.6383,-0.1901 2.24,-8e-4 1.1464,0.36072 2.0661,1.2667 2.4734,2.4366003 0.151156,0.43418 0.180776,0.61452 0.184386,1.1227 0.002,0.33298 -0.032,0.75525 -0.0763,0.93839 -0.122596,0.50672 -0.520036,1.2703 -0.859306,1.651 -0.37543,0.42122 -1.0683,0.89203 -1.5794,1.0732 -0.50397,0.17864 -1.7246,0.22798 -2.2314,0.0902 z m -6.5903997,-5.0619 C 7.911012,10.785342 6.802512,9.9595317 6.300512,8.9575317 c -0.33261,-0.66376 -0.41962,-1.0949 -0.38709,-1.918 0.0238,-0.60223 0.0538,-0.76411 0.21903,-1.1821 0.36022,-0.91117 1.033,-1.6324 1.9166,-2.0546 0.5870203,-0.28047 0.9903003,-0.36618 1.6952003,-0.36028 1.0143997,0.008 1.8809997,0.37729 2.6031997,1.1078 0.69751,0.7055 1.0406,1.472 1.1023,2.4625 0.15149,2.4311 -2.0189,4.3574003 -4.4537997,3.9528003 z"
     stroke-width="0.060541"
     id="path44"
     style="fill:#808080" />
  <circle
     style="fill:#808080;fill-opacity:0.344841;stroke-width:0.39062"
     id="path45"
     cx="14.120144"
     cy="14.120144"
     r="14.120144" />
</svg>
